<?xml version="1.0" encoding="UTF-8"?>
<svg width="375" height="812" viewBox="0 0 375 812" xmlns="http://www.w3.org/2000/svg">
  <defs>
    <!-- 그라디언트 정의 -->
    <linearGradient id="mainGradient" x1="0%" y1="0%" x2="100%" y2="100%">
      <stop offset="0%" style="stop-color:#6B46C1;stop-opacity:1" />
      <stop offset="100%" style="stop-color:#9333EA;stop-opacity:1" />
    </linearGradient>
    <linearGradient id="welcomeGradient" x1="0%" y1="0%" x2="100%" y2="0%">
      <stop offset="0%" style="stop-color:#FFB74D;stop-opacity:0.3" />
      <stop offset="100%" style="stop-color:#FFB74D;stop-opacity:0.1" />
    </linearGradient>
  </defs>
  
  <!-- 배경 -->
  <rect width="375" height="812" fill="#FAFAFA"/>
  
  <!-- 상단 검색바 -->
  <rect x="16" y="16" width="303" height="44" rx="25" fill="#F5F5F5"/>
  <circle cx="40" cy="38" r="8" fill="#757575"/>
  <text x="60" y="44" font-family="Arial, sans-serif" font-size="14" fill="#757575">유니버설 스튜디오 재팬 입장권</text>
  
  <!-- 상단 아이콘들 -->
  <rect x="335" y="20" width="24" height="24" fill="none"/>
  <path d="M7 2C5.9 2 5 2.9 5 4C5 5.1 5.9 6 7 6C8.1 6 9 5.1 9 4C9 2.9 8.1 2 7 2ZM21 2C19.9 2 19 2.9 19 4C19 5.1 19.9 6 21 6C22.1 6 23 5.1 23 4C23 2.9 22.1 2 21 2ZM7 8H5.5C4.1 8 3 9.1 3 10.5V12H9V10.5C9 9.1 7.9 8 7 8ZM21 8H19.5C18.1 8 17 9.1 17 10.5V12H23V10.5C23 9.1 21.9 8 21 8Z" transform="translate(335, 20)" fill="#757575"/>
  
  <rect x="365" y="20" width="24" height="24" fill="none"/>
  <path d="M12 22C13.1 22 14 21.1 14 20C14 18.9 13.1 18 12 18C10.9 18 10 18.9 10 20C10 21.1 10.9 22 12 22ZM20 22C21.1 22 22 21.1 22 20C22 18.9 21.1 18 20 18C18.9 18 18 18.9 18 20C18 21.1 18.9 22 20 22ZM12 16H10.5C9.1 16 8 17.1 8 18.5V20H14V18.5C14 17.1 12.9 16 12 16ZM20 16H18.5C17.1 16 16 17.1 16 18.5V20H22V18.5C22 17.1 20.9 16 20 16Z" transform="translate(365, 20)" fill="#757575"/>
  
  <!-- 카테고리 섹션 -->
  <g transform="translate(16, 80)">
    <!-- 투어&티켓 -->
    <rect x="0" y="0" width="50" height="50" rx="12" fill="#FF9800" fill-opacity="0.1"/>
    <circle cx="25" cy="25" r="12" fill="#FF9800"/>
    <text x="25" y="30" font-family="Arial, sans-serif" font-size="12" fill="white" text-anchor="middle">투어</text>
    <text x="25" y="90" font-family="Arial, sans-serif" font-size="12" fill="black" text-anchor="middle">투어&amp;티켓</text>
    
    <!-- 교통수단 -->
    <rect x="65" y="0" width="50" height="50" rx="12" fill="#2196F3" fill-opacity="0.1"/>
    <rect x="75" y="15" width="20" height="15" rx="2" fill="#2196F3"/>
    <circle cx="80" cy="35" r="3" fill="#2196F3"/>
    <circle cx="90" cy="35" r="3" fill="#2196F3"/>
    <text x="90" y="90" font-family="Arial, sans-serif" font-size="12" fill="black" text-anchor="middle">교통수단</text>
    
    <!-- 렌터카 -->
    <rect x="130" y="0" width="50" height="50" rx="12" fill="#4CAF50" fill-opacity="0.1"/>
    <rect x="140" y="20" width="20" height="10" rx="2" fill="#4CAF50"/>
    <circle cx="145" cy="35" r="3" fill="#4CAF50"/>
    <circle cx="155" cy="35" r="3" fill="#4CAF50"/>
    <text x="155" y="90" font-family="Arial, sans-serif" font-size="12" fill="black" text-anchor="middle">렌터카</text>
    
    <!-- 호텔 -->
    <rect x="195" y="0" width="50" height="50" rx="12" fill="#9C27B0" fill-opacity="0.1"/>
    <rect x="205" y="15" width="20" height="20" fill="#9C27B0"/>
    <rect x="210" y="20" width="3" height="3" fill="white"/>
    <rect x="217" y="20" width="3" height="3" fill="white"/>
    <text x="230" y="90" font-family="Arial, sans-serif" font-size="12" fill="black" text-anchor="middle">호텔</text>
    
    <!-- eSIM -->
    <rect x="260" y="0" width="50" height="50" rx="12" fill="#F44336" fill-opacity="0.1"/>
    <rect x="270" y="15" width="20" height="25" rx="3" fill="#F44336"/>
    <rect x="275" y="20" width="10" height="2" fill="white"/>
    <rect x="275" y="25" width="10" height="2" fill="white"/>
    <rect x="275" y="30" width="10" height="2" fill="white"/>
    <text x="285" y="90" font-family="Arial, sans-serif" font-size="12" fill="black" text-anchor="middle">eSIM</text>
    
    <!-- 모든 카테고리 -->
    <rect x="325" y="0" width="50" height="50" rx="12" fill="#757575" fill-opacity="0.1"/>
    <rect x="335" y="15" width="8" height="8" fill="#757575"/>
    <rect x="347" y="15" width="8" height="8" fill="#757575"/>
    <rect x="335" y="27" width="8" height="8" fill="#757575"/>
    <rect x="347" y="27" width="8" height="8" fill="#757575"/>
    <text x="350" y="90" font-family="Arial, sans-serif" font-size="12" fill="black" text-anchor="middle">모든 카테고리</text>
  </g>
  
  <!-- 메인 배너 -->
  <rect x="16" y="140" width="343" height="120" rx="16" fill="url(#mainGradient)"/>
  
  <!-- 별 아이콘들 -->
  <polygon points="30,150 32,156 38,156 33,160 35,166 30,162 25,166 27,160 22,156 28,156" fill="#FFD700"/>
  <polygon points="50,150 52,156 58,156 53,160 55,166 50,162 45,166 47,160 42,156 48,156" fill="#FFD700"/>
  
  <text x="60" y="165" font-family="Arial, sans-serif" font-size="18" fill="white" font-weight="bold">초특가 바로가기</text>
  
  <!-- 배너 카드들 -->
  <!-- 일본 로컬 카드 -->
  <rect x="30" y="180" width="100" height="60" rx="12" fill="#1976D2"/>
  <text x="80" y="195" font-family="Arial, sans-serif" font-size="11" fill="white" text-anchor="middle" font-weight="bold">일본 로컬</text>
  <text x="80" y="210" font-family="Arial, sans-serif" font-size="11" fill="white" text-anchor="middle" font-weight="bold">최대 100%</text>
  <text x="80" y="225" font-family="Arial, sans-serif" font-size="11" fill="white" text-anchor="middle" font-weight="bold">할인!</text>
  <rect x="50" y="230" width="60" height="20" rx="10" fill="white" fill-opacity="0.2"/>
  <text x="80" y="242" font-family="Arial, sans-serif" font-size="10" fill="white" text-anchor="middle" font-weight="bold">보러가기</text>
  
  <!-- 주말한정 카드 -->
  <rect x="140" y="180" width="100" height="60" rx="12" fill="#00695C"/>
  <text x="190" y="195" font-family="Arial, sans-serif" font-size="11" fill="white" text-anchor="middle" font-weight="bold">최 주말한정</text>
  <text x="190" y="210" font-family="Arial, sans-serif" font-size="11" fill="white" text-anchor="middle" font-weight="bold">인기 일정상품</text>
  <text x="190" y="225" font-family="Arial, sans-serif" font-size="11" fill="white" text-anchor="middle" font-weight="bold">초특가 기획!</text>
  <rect x="160" y="230" width="60" height="20" rx="10" fill="white" fill-opacity="0.2"/>
  <text x="190" y="242" font-family="Arial, sans-serif" font-size="10" fill="white" text-anchor="middle" font-weight="bold">보러가기</text>
  
  <!-- 전 세계 카드 -->
  <rect x="250" y="180" width="100" height="60" rx="12" fill="#F57C00"/>
  <text x="300" y="195" font-family="Arial, sans-serif" font-size="11" fill="white" text-anchor="middle" font-weight="bold">전 세계</text>
  <text x="300" y="210" font-family="Arial, sans-serif" font-size="11" fill="white" text-anchor="middle" font-weight="bold">초특가 모음</text>
  <rect x="270" y="230" width="60" height="20" rx="10" fill="white" fill-opacity="0.2"/>
  <text x="300" y="242" font-family="Arial, sans-serif" font-size="10" fill="white" text-anchor="middle" font-weight="bold">상세보기</text>
  
  <!-- 웰컴 기프트 섹션 -->
  <rect x="16" y="280" width="343" height="60" rx="12" fill="url(#welcomeGradient)"/>
  <circle cx="40" cy="310" r="15" fill="#FF9800"/>
  <text x="40" y="315" font-family="Arial, sans-serif" font-size="16" fill="white" text-anchor="middle">🎁</text>
  <text x="70" y="300" font-family="Arial, sans-serif" font-size="16" fill="#FF9800" font-weight="bold">웰컴 기프트!</text>
  <text x="70" y="320" font-family="Arial, sans-serif" font-size="14" fill="#757575">최대 5% 할인</text>
  <rect x="300" y="295" width="50" height="30" rx="15" fill="#FF9800"/>
  <text x="325" y="312" font-family="Arial, sans-serif" font-size="14" fill="white" text-anchor="middle" font-weight="bold">받기</text>
  
  <!-- 여행지 둘러보기 섹션 -->
  <text x="16" y="370" font-family="Arial, sans-serif" font-size="18" fill="black" font-weight="bold">여행지 둘러보기</text>
  <text x="320" y="370" font-family="Arial, sans-serif" font-size="14" fill="#757575">더보기</text>
  
  <!-- 여행지 카드들 -->
  <g transform="translate(16, 390)">
    <!-- 싱가포르 -->
    <circle cx="40" cy="30" r="30" fill="#4CAF50" fill-opacity="0.2"/>
    <circle cx="40" cy="30" r="20" fill="#4CAF50"/>
    <text x="40" y="35" font-family="Arial, sans-serif" font-size="16" fill="white" text-anchor="middle">🏙️</text>
    <text x="40" y="80" font-family="Arial, sans-serif" font-size="12" fill="black" text-anchor="middle" font-weight="bold">싱가포르</text>
    
    <!-- 도쿄도 -->
    <circle cx="135" cy="30" r="30" fill="#2196F3" fill-opacity="0.2"/>
    <circle cx="135" cy="30" r="20" fill="#2196F3"/>
    <text x="135" y="35" font-family="Arial, sans-serif" font-size="16" fill="white" text-anchor="middle">🗾</text>
    <text x="135" y="80" font-family="Arial, sans-serif" font-size="12" fill="black" text-anchor="middle" font-weight="bold">도쿄도</text>
    
    <!-- 다낭 -->
    <circle cx="230" cy="30" r="30" fill="#FF9800" fill-opacity="0.2"/>
    <circle cx="230" cy="30" r="20" fill="#FF9800"/>
    <text x="230" y="35" font-family="Arial, sans-serif" font-size="16" fill="white" text-anchor="middle">🏖️</text>
    <text x="230" y="80" font-family="Arial, sans-serif" font-size="12" fill="black" text-anchor="middle" font-weight="bold">다낭</text>
  </g>
  
  <!-- 추천 상품 섹션 -->
  <text x="16" y="520" font-family="Arial, sans-serif" font-size="18" fill="black" font-weight="bold">추천 상품</text>
  <text x="120" y="520" font-family="Arial, sans-serif" font-size="16" fill="#757575">주변 상품</text>
  
  <!-- 상품 카드들 -->
  <g transform="translate(16, 540)">
    <!-- JR 하루카 카드 -->
    <rect x="0" y="0" width="250" height="200" rx="12" fill="white"/>
    <rect x="0" y="0" width="250" height="120" rx="12" fill="#2196F3" fill-opacity="0.3"/>
    <circle cx="20" cy="100" r="8" fill="white"/>
    <text x="20" y="105" font-family="Arial, sans-serif" font-size="12" fill="#2196F3" text-anchor="middle">📍</text>
    <text x="35" y="105" font-family="Arial, sans-serif" font-size="12" fill="white" font-weight="bold">오사카</text>
    
    <text x="15" y="145" font-family="Arial, sans-serif" font-size="13" fill="black" font-weight="bold">JR 하루카 간사이 공항 특급</text>
    <text x="15" y="160" font-family="Arial, sans-serif" font-size="13" fill="black" font-weight="bold">열차 티켓</text>
    <text x="15" y="185" font-family="Arial, sans-serif" font-size="14" fill="black" font-weight="bold">₩ 11,300 부터</text>
    
    <!-- 페리 티켓 카드 -->
    <rect x="270" y="0" width="250" height="200" rx="12" fill="white"/>
    <rect x="270" y="0" width="250" height="120" rx="12" fill="#9C27B0" fill-opacity="0.3"/>
    <circle cx="290" cy="100" r="8" fill="white"/>
    <text x="290" y="105" font-family="Arial, sans-serif" font-size="12" fill="#9C27B0" text-anchor="middle">📍</text>
    <text x="305" y="105" font-family="Arial, sans-serif" font-size="12" fill="white" font-weight="bold">후쿠오카</text>
    
    <text x="285" y="145" font-family="Arial, sans-serif" font-size="13" fill="black" font-weight="bold">후쿠오카 - 부산 젯포일 페리</text>
    <text x="285" y="160" font-family="Arial, sans-serif" font-size="13" fill="black" font-weight="bold">티켓 by New Camellia Line</text>
    <text x="285" y="185" font-family="Arial, sans-serif" font-size="14" fill="black" font-weight="bold">₩ 63,200 부터</text>
    
    <!-- 할인 태그 -->
    <rect x="400" y="190" width="80" height="20" rx="4" fill="#F44336"/>
    <text x="440" y="202" font-family="Arial, sans-serif" font-size="10" fill="white" text-anchor="middle" font-weight="bold">KRW1,000 할인</text>
  </g>
  
  <!-- 하단 네비게이션 바 -->
  <rect x="0" y="760" width="375" height="52" fill="white"/>
  <line x1="0" y1="760" x2="375" y2="760" stroke="#E0E0E0" stroke-width="1"/>
  
  <!-- 네비게이션 아이템들 -->
  <g transform="translate(0, 760)">
    <!-- 홈 -->
    <circle cx="37.5" cy="26" r="20" fill="#2196F3" fill-opacity="0.1"/>
    <text x="37.5" y="30" font-family="Arial, sans-serif" font-size="20" fill="#2196F3" text-anchor="middle">🏠</text>
    <text x="37.5" y="45" font-family="Arial, sans-serif" font-size="10" fill="#2196F3" text-anchor="middle" font-weight="bold">홈</text>
    
    <!-- 내 예약 -->
    <text x="112.5" y="30" font-family="Arial, sans-serif" font-size="20" fill="#757575" text-anchor="middle">📋</text>
    <text x="112.5" y="45" font-family="Arial, sans-serif" font-size="10" fill="#757575" text-anchor="middle">내 예약</text>
    
    <!-- 할인 특가 -->
    <text x="187.5" y="30" font-family="Arial, sans-serif" font-size="20" fill="#757575" text-anchor="middle">🏷️</text>
    <text x="187.5" y="45" font-family="Arial, sans-serif" font-size="10" fill="#757575" text-anchor="middle">할인 특가</text>
    
    <!-- 내 여행 -->
    <text x="262.5" y="30" font-family="Arial, sans-serif" font-size="20" fill="#757575" text-anchor="middle">✈️</text>
    <text x="262.5" y="45" font-family="Arial, sans-serif" font-size="10" fill="#757575" text-anchor="middle">내 여행</text>
    
    <!-- 내정보 -->
    <text x="337.5" y="30" font-family="Arial, sans-serif" font-size="20" fill="#757575" text-anchor="middle">👤</text>
    <text x="337.5" y="45" font-family="Arial, sans-serif" font-size="10" fill="#757575" text-anchor="middle">내정보</text>
  </g>
</svg>
